<svg xmlns="http://www.w3.org/2000/svg" width="232.5" height="94.387" viewBox="0 0 232.5 94.387">
  <g id="Tidy3D-logo" transform="translate(0 0.003)">
    <g id="Layer_1" data-name="Layer 1" transform="translate(0 -0.003)">
      <path id="Path_45" data-name="Path 45" d="M621.178,36.358c-26.453-19.863-63.147-10.859-78.538,16,.29-.033.582-.063.874-.089,15.54-25.577,51.25-33.971,76.691-14.626,20.693,15.486,25.764,42.412,16.2,63.768h1.087A53.58,53.58,0,0,0,621.178,36.358Z" transform="translate(-415.832 -19.623)" fill="#4772ae"/>
      <path id="Path_46" data-name="Path 46" d="M660.067,92.055c-3.239-25.939-28.07-44.686-53.9-40.678A46.951,46.951,0,0,0,574,71.5h1.215c14.676-19.749,43.957-25.446,65.152-9.38,19,14.255,23.053,39.479,13.042,58.623h1.419A47.453,47.453,0,0,0,660.067,92.055Z" transform="translate(-439.864 -38.956)" fill="#b5475d"/>
      <path id="Path_47" data-name="Path 47" d="M679.052,112.473c-2.781-22.728-24.537-39.159-47.165-35.586a41.066,41.066,0,0,0-25.4,14.2H608.4A39.934,39.934,0,0,1,617.518,84c30.548-17.122,66.72,10.168,58.639,44.242a40.044,40.044,0,0,1-5.16,12.1h1.659A41.167,41.167,0,0,0,679.052,112.473Z" transform="translate(-464.761 -58.544)" fill="#4772ae"/>
      <path id="Path_48" data-name="Path 48" d="M701.2,132.825a35.5,35.5,0,0,0-26.423-29.842,35.038,35.038,0,0,0-31.646,7.63h3.117c.83-.563,1.68-1.108,2.571-1.608,25.654-14.152,55.823,8.607,49.254,37.156a33.063,33.063,0,0,1-6.793,13.7h1.853A34.781,34.781,0,0,0,701.2,132.825Z" transform="translate(-492.839 -78.069)" fill="#b5475d"/>
      <path id="Path_49" data-name="Path 49" d="M730.824,153.26c-1.767-16.237-17.555-28.157-33.651-25.4a30.313,30.313,0,0,0-7.653,2.36h11.329a26.719,26.719,0,0,1,23.716,14.409,27.07,27.07,0,0,1,2.9,19.548,26.728,26.728,0,0,1-9.6,15.29h2.12A28.83,28.83,0,0,0,730.824,153.26Z" transform="translate(-528.388 -97.674)" fill="#4772ae"/>
      <path id="Path_50" data-name="Path 50" d="M602.234,11.986C571.936-10.862,529.382.549,513.26,32.648h.512c16.22-31.249,58.193-42.276,87.8-19.77,22.495,16.842,28.5,45.728,19.052,69.274.234.042.467.084.7.133A59.539,59.539,0,0,0,602.234,11.986Z" transform="translate(-393.318 0.003)" fill="#b5475d"/>
      <path id="Path_51" data-name="Path 51" d="M705.009,167.612a18.887,18.887,0,0,0-7.712-7.922,24.454,24.454,0,0,0-11.918-2.76H668.89v46.088h16.358a24.756,24.756,0,0,0,12.023-2.769,18.85,18.85,0,0,0,7.749-7.959,29.448,29.448,0,0,0-.012-24.677Zm-26.07-1.982h5.919a15.239,15.239,0,0,1,7.078,1.491,9.548,9.548,0,0,1,4.293,4.627,19.767,19.767,0,0,1,1.458,8.179,20.077,20.077,0,0,1-1.458,8.237,9.548,9.548,0,0,1-4.3,4.648,15.323,15.323,0,0,1-7.09,1.5h-5.9Z" transform="translate(-512.579 -120.257)" fill="#b5475d"/>
      <path id="Path_52" data-name="Path 52" d="M525,170.068l13.5-13.138-1.213.14H508.664l-3.367,7.868h13.731L507.5,177.978l10.721-1.442h.021a10,10,0,1,1-10.556,9.976v-.449h-8v.449A17.964,17.964,0,1,0,525,170.068Z" transform="translate(-382.919 -120.257)" fill="#b5475d"/>
      <path id="Path_53" data-name="Path 53" d="M0,166.986l.257-9.936h32.5L29.8,166.986H21.158v36.221H9.614V166.986Z" transform="translate(0 -120.349)" fill="#221f20"/>
      <path id="Path_54" data-name="Path 54" d="M141.247,161.329a5.842,5.842,0,0,1,1.7-4.206,5.527,5.527,0,0,1,4.134-1.764,5.912,5.912,0,0,1,5.9,5.9,5.609,5.609,0,0,1-1.741,4.111,5.454,5.454,0,0,1-3.973,1.732,6.02,6.02,0,0,1-4.232-1.666A5.375,5.375,0,0,1,141.247,161.329Zm.32,40.573V173.828l10.577-5.45V201.9Z" transform="translate(-108.238 -119.051)" fill="#221f20"/>
      <path id="Path_55" data-name="Path 55" d="M224.257,169.569V156.737l10.574-5.517v47.511H224.769v-3.589a8.5,8.5,0,0,1-5.321,3.783,24.468,24.468,0,0,1-4.935.769,12.715,12.715,0,0,1-9.2-3.783q-3.875-3.783-4.424-7.4t-.608-4.585q-.061-.963-.065-1.792a17.613,17.613,0,0,1,3.2-10.673q3.2-4.391,6.092-5.031a36.023,36.023,0,0,1,3.655-.7c.512-.042,1.066-.065,1.664-.065a13.185,13.185,0,0,1,8.782,3.272Zm-13.14,12.5a10.16,10.16,0,0,0,1.5,5.77,5.627,5.627,0,0,0,3.173,2.627,12.192,12.192,0,0,0,2.5.383,5.657,5.657,0,0,0,4.262-1.762,6.5,6.5,0,0,0,1.7-4.711q0-5.447-1-7.595a4.184,4.184,0,0,0-2.851-2.571,14.1,14.1,0,0,0-2.571-.416,6.076,6.076,0,0,0-4.8,2.243A8.963,8.963,0,0,0,211.117,182.067Z" transform="translate(-153.431 -115.881)" fill="#221f20"/>
      <path id="Path_56" data-name="Path 56" d="M353,216.3h11.537l6.281,17.76.643,2.685c.042.386.1.748.161,1.091a7.208,7.208,0,0,1,.1,1.281l.383-2.435.577-2.757,6.543-17.625h11.666L372.1,260.14H360.244l6.09-12.619Z" transform="translate(-270.508 -165.753)" fill="#221f20"/>
    </g>
  </g>
</svg>
