<svg width="236" height="97" viewBox="0 0 236 97" fill="none" xmlns="http://www.w3.org/2000/svg">
    <g clip-path="url(#clip0_869_6629)">
        <path d="M208.435 17.054C181.584 -3.18894 144.338 5.98705 128.716 33.3626C129.01 33.3293 129.306 33.2983 129.603 33.2721C145.377 7.20639 181.624 -1.34803 207.448 18.3662C228.452 34.1485 233.6 61.5884 223.891 83.3531H224.994C235.03 61.2716 229.85 33.3626 208.435 17.054Z" fill="#007AFF"/>
        <path d="M223.515 54.1126C220.227 27.6777 195.022 8.57315 168.8 12.6575C154.273 14.9509 143.139 22.798 136.153 33.1647H137.387C152.283 13.0385 182.005 7.23235 203.519 23.6053C222.801 38.1326 226.919 63.8387 216.757 83.3481H218.197C222.697 75.0175 224.848 65.0533 223.515 54.1126Z" fill="#221F20"/>
        <path d="M217.514 54.9582C214.691 31.7956 192.608 15.0511 169.64 18.6925C158.671 20.4619 149.937 25.8608 143.86 33.165H145.803C148.522 30.3184 151.638 27.8836 155.054 25.9371C186.061 8.48766 222.778 36.299 214.575 71.024C213.518 75.3954 211.748 79.5613 209.338 83.3531H211.022C216.148 75.556 218.79 65.8156 217.514 54.9582Z" fill="#007AFF"/>
        <path d="M211.493 55.8012C209.852 41.3859 198.727 28.7852 184.673 25.3892C173.157 22.3147 161.159 25.7345 152.551 33.1649H155.715C156.557 32.5909 157.421 32.036 158.324 31.5264C184.364 17.1039 214.987 40.2975 208.319 69.3925C207.139 74.5231 204.777 79.3044 201.424 83.353H203.305C209.339 76.2656 212.755 66.7038 211.493 55.8012Z" fill="#221F20"/>
        <path d="M205.482 56.6466C203.689 40.0998 187.664 27.9517 171.325 30.7595C168.641 31.2129 166.029 32.0217 163.557 33.1649H175.056C180.023 33.1644 184.894 34.5334 189.139 37.1225C193.384 39.7115 196.839 43.4213 199.128 47.8469C202.358 53.484 203.684 60.3833 202.069 67.7707C200.718 73.9426 197.273 79.4512 192.322 83.353H194.474C201.953 77.4254 206.711 67.9065 205.482 56.6466Z" fill="#007AFF"/>
        <path d="M212.059 12.2171C181.305 -11.067 138.111 0.561981 121.746 33.2745H122.266C138.73 1.42885 181.334 -9.80953 211.385 13.1269C234.218 30.2905 240.309 59.7285 230.724 83.7246C230.961 83.7675 231.199 83.8104 231.436 83.8604C241.332 59.6237 235.238 29.7951 212.059 12.2171Z" fill="#221F20"/>
        <path d="M195.325 48.2589C193.576 44.8441 190.85 42.0325 187.497 40.1856C184.127 38.3208 180.054 37.373 175.4 37.373H158.663V84.3413H175.267C179.971 84.3413 184.077 83.3887 187.471 81.5192C190.845 79.6701 193.586 76.8435 195.337 73.4078C197.159 69.9117 198.081 65.6726 198.081 60.8119C198.081 55.9512 197.147 51.7431 195.325 48.2589ZM168.863 46.2394H174.871C177.718 46.2394 180.125 46.749 182.056 47.7588C183.999 48.7892 185.535 50.4519 186.413 52.4742C187.395 54.6176 187.894 57.4206 187.894 60.8095C187.894 64.1984 187.395 67.0562 186.413 69.2044C185.431 71.3525 183.968 72.9338 182.044 73.9412C180.12 74.9486 177.684 75.4749 174.847 75.4749H168.863V46.2394Z" fill="#221F20"/>
        <path d="M144.22 50.7619L157.923 37.373L156.692 37.5159H127.637L124.219 45.5345H138.157L126.458 58.8234L137.341 57.354H137.362C139.344 57.4643 141.249 58.1552 142.844 59.3413C144.438 60.5274 145.652 62.1567 146.334 64.0276C147.016 65.8986 147.137 67.9293 146.682 69.8686C146.227 71.8078 145.216 73.5707 143.773 74.9392C142.331 76.3077 140.521 77.2219 138.567 77.5686C136.613 77.9154 134.6 77.6795 132.778 76.8902C130.956 76.1009 129.404 74.7928 128.315 73.1276C127.225 71.4624 126.646 69.5131 126.648 67.5207V67.0635H118.528V67.5207C118.528 77.6493 126.709 85.887 136.762 85.887C146.815 85.887 154.996 77.6374 154.996 67.5159C155.008 63.9756 153.996 60.5079 152.083 57.5338C150.171 54.5597 147.439 52.2072 144.22 50.7619Z" fill="#221F20"/>
        <path d="M0 47.5279L0.260923 37.4017H33.2463L30.2528 47.5279H21.4763V84.4414H9.75852V47.5279H0Z" fill="#221F20"/>
        <path d="M33.5049 43.0838C33.4931 42.2899 33.6396 41.5017 33.9358 40.7655C34.2319 40.0293 34.6717 39.3601 35.2294 38.7971C35.7643 38.219 36.4143 37.7602 37.1371 37.4504C37.86 37.1407 38.6396 36.9869 39.4255 36.999C41.0122 37.0028 42.5328 37.6373 43.6548 38.7638C44.7767 39.8902 45.4087 41.4169 45.4125 43.01C45.4192 43.7925 45.2659 44.5681 44.9619 45.2886C44.6579 46.0092 44.2098 46.6595 43.6453 47.1991C42.4767 48.3755 41.1325 48.9638 39.6129 48.9638C38.0149 48.9835 36.4728 48.374 35.3171 47.2658C34.7336 46.7403 34.2696 46.0948 33.9569 45.3731C33.6442 44.6515 33.49 43.8707 33.5049 43.0838ZM33.8299 84.4317V55.8225L44.5656 50.2688V84.4317H33.8299Z" fill="#221F20"/>
        <path d="M71.8908 54.7129V41.636L82.6243 36.0132V84.4319H72.4103V80.7739C71.063 82.822 69.2626 84.1072 67.0092 84.6295C64.7558 85.1519 63.0859 85.4131 61.9995 85.4131C58.3988 85.4131 55.2875 84.1278 52.6656 81.5574C50.0437 78.9869 48.5469 76.4729 48.1753 74.0151C47.8053 71.5542 47.5997 69.9967 47.5586 69.3426C47.5175 68.6885 47.4954 68.0796 47.4922 67.516C47.4922 63.2483 48.5762 59.6228 50.7442 56.6396C52.9123 53.6563 54.9736 51.9472 56.9281 51.5121C58.8795 51.0755 60.1161 50.8374 60.638 50.7977C61.1574 50.7548 61.7196 50.731 62.3268 50.731C65.6046 50.7089 68.7765 51.8952 71.2409 54.0651L71.8908 54.7129ZM58.5529 67.4493C58.5529 69.8451 59.0621 71.8051 60.0805 73.3292C61.0989 74.8534 62.1727 75.7457 63.3017 76.0061C64.1312 76.2241 64.981 76.355 65.8374 76.3966C66.6438 76.4192 67.4458 76.271 68.1913 75.9616C68.9367 75.6522 69.6089 75.1886 70.164 74.601C71.3137 73.4055 71.8893 71.8051 71.8908 69.7998C71.8908 66.0989 71.554 63.519 70.8804 62.0599C70.2067 60.6008 69.2421 59.7276 67.9865 59.4402C67.1316 59.2184 66.2582 59.0765 65.3773 59.0163C64.4451 59.0025 63.522 59.2011 62.6773 59.5971C61.8326 59.9931 61.0883 60.5762 60.5004 61.3026C59.2021 62.8252 58.5529 64.8741 58.5529 67.4493Z" fill="#221F20"/>
        <path d="M83.7334 51.5122H95.4441L101.82 69.6118L102.472 72.3482C102.515 72.7411 102.572 73.1102 102.636 73.4603C102.707 73.8916 102.74 74.3283 102.733 74.7654L103.122 72.2838L103.708 69.4737L110.35 51.5122H122.191L103.118 96.1895H91.0867L97.2682 83.3293L83.7334 51.5122Z" fill="#221F20"/>
    </g>
    <defs>
        <clipPath id="clip0_869_6629">
            <rect width="236" height="96.1896" fill="white"/>
        </clipPath>
    </defs>
</svg>
