<svg width="13" height="12" viewBox="0 0 13 12" fill="none" xmlns="http://www.w3.org/2000/svg">
    <g clip-path="url(#clip0_2823_1370)">
        <path d="M6.01351 12C2.69255 12 0 9.3135 0 6C0 2.6865 2.69255 0 6.01351 0C9.33448 0 12.027 2.6865 12.027 6C12.027 9.3135 9.33448 12 6.01351 12ZM4.6725 8.356C4.73067 8.41405 4.79973 8.46011 4.87574 8.49153C4.95175 8.52294 5.03322 8.53912 5.1155 8.53912C5.19777 8.53912 5.27924 8.52294 5.35525 8.49153C5.43126 8.46011 5.50032 8.41405 5.55849 8.356L9.35602 4.567C9.4142 4.50896 9.46035 4.44005 9.49183 4.36421C9.52332 4.28837 9.53952 4.20709 9.53952 4.125C9.53952 4.04291 9.52332 3.96163 9.49183 3.88579C9.46035 3.80995 9.4142 3.74104 9.35602 3.683C9.29785 3.62496 9.22879 3.57891 9.15278 3.5475C9.07677 3.51609 8.9953 3.49992 8.91303 3.49992C8.83076 3.49992 8.74929 3.51609 8.67328 3.5475C8.59727 3.57891 8.52821 3.62496 8.47003 3.683L5.08843 7.003L3.57503 5.493C3.45754 5.37577 3.29819 5.30992 3.13204 5.30992C2.96588 5.30992 2.80653 5.37577 2.68904 5.493C2.57155 5.61023 2.50555 5.76922 2.50555 5.935C2.50555 6.01709 2.52175 6.09837 2.55324 6.17421C2.58472 6.25005 2.63087 6.31896 2.68904 6.377L4.6725 8.356Z" fill="currentColor"/>
    </g>
    <defs>
        <clipPath id="clip0_2823_1370">
            <rect width="12.027" height="12" fill="white"/>
        </clipPath>
    </defs>
</svg>
