<svg width="32" height="32" viewBox="0 0 32 32" fill="none" xmlns="http://www.w3.org/2000/svg">
    <path fill-rule="evenodd" clip-rule="evenodd" d="M0 16C0 20.2435 1.68571 24.3131 4.68629 27.3137C7.68687 30.3143 11.7565 32 16 32C20.2435 32 24.3131 30.3143 27.3137 27.3137C30.3143 24.3131 32 20.2435 32 16C32 11.7565 30.3143 7.68687 27.3137 4.68629C24.3131 1.68571 20.2435 0 16 0C11.7565 0 7.68687 1.68571 4.68629 4.68629C1.68571 7.68687 0 11.7565 0 16ZM15.9385 5.30355C15.1684 5.30355 14.5413 5.92719 14.5413 6.70078V14.661L12.7999 12.9195C12.2546 12.3743 11.372 12.3743 10.8267 12.9195C10.2815 13.4648 10.2815 14.3474 10.8267 14.8927L14.8707 18.9367C15.1267 19.2398 15.5095 19.4326 15.9385 19.4326C16.3562 19.4326 16.7318 19.2492 16.9881 18.958L21.0332 14.9129C21.5784 14.3676 21.5784 13.485 21.0332 12.9397C20.4879 12.3944 19.6053 12.3944 19.06 12.9397L17.3358 14.6639V6.69737C17.3358 5.92719 16.7121 5.30355 15.9385 5.30355ZM24.2198 19.8479C24.2198 19.0743 24.8468 18.4507 25.617 18.4507C26.3872 18.4507 27.0142 19.0743 27.0108 19.8513V22.472C26.895 23.5693 26.0157 24.4417 24.915 24.5406H6.90776C5.79679 24.4213 4.92437 23.5182 4.84599 22.3936V19.8513C4.84599 19.0777 5.46963 18.4541 6.24322 18.4541C7.01681 18.4541 7.64045 19.0811 7.64045 19.8513V21.0066C7.69498 21.3746 7.97442 21.6677 8.33566 21.7461H23.4871C23.8551 21.6882 24.1448 21.4087 24.2198 21.0475V19.8479Z" fill="#333333"/>
</svg>
