<svg width="34" height="34" viewBox="0 0 34 34" fill="currentColor" xmlns="http://www.w3.org/2000/svg">
    <path fill-rule="evenodd" clip-rule="evenodd" d="M12.484 1.71884C12.2051 1.60995 11.8881 1.65281 11.6501 1.83156L2.55588 8.66038L22.3233 16.2646C22.6108 16.3752 22.9359 16.3215 23.1725 16.1243L31.5324 9.15658L12.484 1.71884ZM1.70001 10.1528V13.3095L22.0998 21.157V17.9661C21.9692 17.9384 21.8399 17.9005 21.713 17.8515L1.70001 10.1528ZM23.7998 17.7366C23.9623 17.6524 24.117 17.5503 24.2608 17.4304L33.6939 9.5682C33.8959 9.39988 33.9999 9.15774 33.9998 8.91389C34.0078 8.57756 33.8043 8.25636 33.4655 8.12409L13.1154 0.178062C12.2788 -0.148593 11.3277 -0.0200389 10.6136 0.516225L0.339116 8.23132C0.325397 8.24139 0.312 8.25187 0.298961 8.26274C0.12376 8.4085 0.00996207 8.62247 0.000663089 8.86258C0.00013609 8.87581 -8.49537e-05 8.88907 3.40461e-05 8.90233V13.8728L0.000102138 13.8832C-0.00407985 14.2285 0.203965 14.5557 0.545138 14.687L3.70564 15.9028L0.319021 18.6918C0.105978 18.8671 -0.00333188 19.1267 8.51153e-05 19.3875C-0.000696883 19.4674 0.00872107 19.5462 0.027523 19.6222C0.00955407 19.6897 0 19.7604 0 19.8334V24.8332L6.80922e-05 24.8436C-0.0041139 25.1904 0.203932 25.5192 0.545104 25.6509L21.7132 33.8291C22.0753 33.9692 22.4571 34.0217 22.831 33.9918C22.8699 33.9971 22.9095 33.9999 22.95 33.9999C23.1059 33.9999 23.2521 33.9588 23.3777 33.8869C23.6957 33.7888 23.9968 33.6275 24.261 33.4063L33.6941 25.51C34.0547 25.2081 34.1035 24.6697 33.8029 24.3074C33.5024 23.9451 32.9663 23.8962 32.6058 24.1981L23.8 31.5693V28.6994C23.9623 28.6108 24.117 28.503 24.2608 28.3767L33.6939 20.0855C33.8961 19.9077 34.0003 19.6518 33.9998 19.3943C34.0066 19.0667 33.8335 18.7486 33.5299 18.5924L30.6304 17.0999L33.6939 14.5467C34.0545 14.2462 34.1033 13.71 33.8027 13.3493C33.5022 12.9886 32.9662 12.9399 32.6056 13.2405L23.7998 20.5798V17.7366ZM2.52543 19.1158L5.56042 16.6163L21.713 22.8299C22.0751 22.9693 22.457 23.0217 22.8308 22.9918C22.8697 22.9972 22.9093 22.9999 22.9498 22.9999C23.1057 22.9999 23.2519 22.959 23.3775 22.8874C23.6956 22.7897 23.9966 22.629 24.2608 22.4089L29.1998 18.2923C29.2507 18.3367 29.3074 18.3756 29.3697 18.4076L31.6261 19.569L23.1725 26.9992C22.9359 27.2071 22.6108 27.2639 22.3233 27.1471L2.52543 19.1158ZM1.7 20.7021V24.2675L22.1 32.149V28.9416C21.9694 28.9124 21.84 28.8721 21.713 28.8207L1.7 20.7021ZM15.1137 4.56902C15.4069 4.93559 15.3476 5.47048 14.9809 5.76374L10.731 9.16374C10.3644 9.45699 9.8295 9.39755 9.53624 9.03098C9.24299 8.66441 9.30242 8.12951 9.66899 7.83626L13.9191 4.43627C14.2856 4.143 14.8204 4.20243 15.1137 4.56902ZM18.5136 6.26902C18.8069 6.63559 18.7476 7.17047 18.3809 7.46374L14.1309 10.8637C13.7644 11.157 13.2295 11.0976 12.9362 10.731C12.643 10.3644 12.7024 9.82951 13.069 9.53626L17.3191 6.13626C17.6856 5.843 18.2204 5.90243 18.5136 6.26902Z" fill="currentColor"/>
</svg>
