<svg width="33" height="37" viewBox="0 0 33 37" fill="none" xmlns="http://www.w3.org/2000/svg">
    <path d="M32.2104 9.50666L23.4753 0.971349C23.0347 0.530739 22.4448 0.286766 21.8258 0.286766H4.72943C3.76446 0.286766 3.18614 1.06967 3.18614 2.03464V11.6154C3.18614 11.7756 3.05505 11.9067 2.89483 11.9067H0.582624C0.262181 11.9067 0 12.1689 0 12.4893L0 31.193C0 31.5134 0.262181 31.7756 0.582624 31.7756H2.98156C2.98156 33.061 3.50227 34.0764 4.34708 34.9212C5.19188 35.766 6.35713 36.2868 7.64254 36.2868H31.5301C32.2379 36.2868 32.8914 35.5633 32.8914 34.5983V11.1526C32.8914 10.5335 32.6474 9.94363 32.2104 9.50666ZM24.7328 4.81068L28.0922 8.17009H24.8497C24.7696 8.17009 24.7041 8.10454 24.7041 8.02443L24.7328 4.81068ZM2.10762 29.9374C1.9474 29.9374 1.81631 29.8063 1.81631 29.646V13.9152C1.81631 13.755 1.9474 13.6239 2.10762 13.6239H17.8385C17.9987 13.6239 18.1298 13.755 18.1298 13.9152V29.646C18.1298 29.8063 17.9987 29.9374 17.8385 29.9374H2.10762ZM31.2221 34.307C31.2221 34.4673 31.091 34.5983 30.9308 34.5983H7.64254C6.35713 34.5983 4.93983 33.061 4.93983 31.7756H19.0238C19.3442 31.7756 19.6064 31.5134 19.6064 31.193V12.4893C19.6064 12.1689 19.3442 11.9067 19.0238 11.9067H5.60336C5.44314 11.9067 5.31205 11.7756 5.31205 11.6154V2.26273C5.31205 2.10251 5.44314 1.97142 5.60336 1.97142H20.4603C21.7457 1.97142 22.7908 3.0165 22.7908 4.30192V9.54553C22.7908 9.86597 23.0529 10.1282 23.3734 10.1282H28.617C29.9024 10.1282 31.2221 11.1732 31.2221 12.4586V34.307Z" fill="currentColor"/>
    <path d="M28.5553 18.3591H22.4377C22.3576 18.3591 22.2921 18.2935 22.2921 18.2134V16.1742C22.2921 16.0941 22.3576 16.0286 22.4377 16.0286H28.5553C28.6354 16.0286 28.7009 16.0941 28.7009 16.1742V18.2134C28.7009 18.2935 28.6354 18.3591 28.5553 18.3591ZM28.5553 23.0201H22.4377C22.3576 23.0201 22.2921 22.9545 22.2921 22.8744V20.8352C22.2921 20.7551 22.3576 20.6896 22.4377 20.6896H28.5553C28.6354 20.6896 28.7009 20.7551 28.7009 20.8352V22.8744C28.7009 22.9545 28.6354 23.0201 28.5553 23.0201ZM28.5553 27.6811H22.4377C22.3576 27.6811 22.2921 27.6155 22.2921 27.5354V25.4962C22.2921 25.4161 22.3576 25.3506 22.4377 25.3506H28.5553C28.6354 25.3506 28.7009 25.4161 28.7009 25.4962V27.5354C28.7009 27.6155 28.6354 27.6811 28.5553 27.6811Z" fill="currentColor"/>
    <path d="M8.81431 24.0463C8.4982 21.5865 11.7044 21.0382 11.7044 19.5185C11.7044 18.5628 10.9819 18.0301 9.79274 18.0301C8.87452 18.0301 8.12188 18.4688 7.38429 19.2678L6.14996 18.0927C7.11334 16.9334 8.43799 16.1657 10.0486 16.1657C12.2313 16.1657 13.8269 17.231 13.8269 19.3148C13.8269 21.6022 10.5303 21.8842 10.7712 24.0463H8.81431ZM9.80779 28.2294C9.02505 28.2294 8.46809 27.6497 8.46809 26.835C8.46809 26.0203 9.0401 25.4563 9.80779 25.4563C10.5604 25.4563 11.1324 26.0203 11.1324 26.835C11.1324 27.6497 10.5604 28.2294 9.80779 28.2294Z" fill="currentColor"/>
</svg>
