<svg width="32" height="32" viewBox="0 0 32 32" fill="none" xmlns="http://www.w3.org/2000/svg">
    <path fill-rule="evenodd" clip-rule="evenodd" d="M8.47058 0.941176C8.47058 0.421379 8.89196 0 9.41176 0H31.0588C31.5786 0 32 0.421379 32 0.941176V22.5882C32 23.108 31.5786 23.5294 31.0588 23.5294H9.41176C8.89196 23.5294 8.47058 23.108 8.47058 22.5882V0.941176ZM10.3529 1.88235V21.6471H30.1176V1.88235H10.3529Z" fill="currentColor"/>
    <path fill-rule="evenodd" clip-rule="evenodd" d="M0 9.41176C0 8.89196 0.421379 8.47058 0.941176 8.47058H22.5882C23.108 8.47058 23.5294 8.89196 23.5294 9.41176V31.0588C23.5294 31.5786 23.108 32 22.5882 32H0.941176C0.421379 32 0 31.5786 0 31.0588V9.41176ZM1.88235 10.3529V30.1176H21.6471V10.3529H1.88235Z" fill="currentColor"/>
    <path fill-rule="evenodd" clip-rule="evenodd" d="M7.72431 1.68741C8.09187 2.05496 8.09187 2.65088 7.72431 3.01843L3.01843 7.72431C2.65088 8.09187 2.05496 8.09187 1.68741 7.72431C1.31986 7.35676 1.31986 6.76084 1.68741 6.39329L6.39329 1.68741C6.76084 1.31986 7.35676 1.31986 7.72431 1.68741Z" fill="currentColor"/>
    <path fill-rule="evenodd" clip-rule="evenodd" d="M8.30292 23.6762C8.67047 24.0437 8.67047 24.6396 8.30292 25.0072L3.76473 29.1765C3.39718 29.544 2.88379 29.4687 2.51624 29.1011C2.14869 28.7336 2.14869 28.1377 2.51624 27.7701L6.9719 23.6762C7.33945 23.3086 7.93537 23.3086 8.30292 23.6762Z" fill="currentColor"/>
    <path fill-rule="evenodd" clip-rule="evenodd" d="M29.3714 2.62863C29.739 2.99618 29.739 3.5921 29.3714 3.95966L24.8604 8.38987C24.4929 8.75743 23.897 8.75743 23.5294 8.38987C23.1619 8.02232 23.1619 7.4264 23.5294 7.05885L28.0404 2.62863C28.408 2.26108 29.0039 2.26108 29.3714 2.62863Z" fill="currentColor"/>
    <path fill-rule="evenodd" clip-rule="evenodd" d="M30.3126 24.2757C30.6801 24.6432 30.6801 25.2391 30.3126 25.6067L25.6067 30.3126C25.2391 30.6801 24.6432 30.6801 24.2757 30.3126C23.9081 29.945 23.9081 29.3491 24.2757 28.9815L28.9815 24.2757C29.3491 23.9081 29.945 23.9081 30.3126 24.2757Z" fill="currentColor"/>
</svg>

