<svg width="34" height="34" viewBox="0 0 34 34" fill="currentColor" xmlns="http://www.w3.org/2000/svg">
<path fill-rule="evenodd" clip-rule="evenodd" d="M17 8.5C18.8778 8.5 20.4 6.97777 20.4 5.1C20.4 3.22223 18.8778 1.7 17 1.7C15.1222 1.7 13.6 3.22223 13.6 5.1C13.6 6.97777 15.1222 8.5 17 8.5ZM17 10.2C19.8167 10.2 22.1 7.91665 22.1 5.1C22.1 2.28335 19.8167 0 17 0C14.1833 0 11.9 2.28335 11.9 5.1C11.9 7.91665 14.1833 10.2 17 10.2ZM8.5 17C8.5 18.8778 6.97777 20.4 5.1 20.4C3.22223 20.4 1.7 18.8778 1.7 17C1.7 15.1222 3.22223 13.6 5.1 13.6C6.97777 13.6 8.5 15.1222 8.5 17ZM10.2 17C10.2 19.8167 7.91665 22.1 5.1 22.1C2.28335 22.1 0 19.8167 0 17C0 14.1833 2.28335 11.9 5.1 11.9C7.91665 11.9 10.2 14.1833 10.2 17ZM32.3 17C32.3 18.8778 30.7778 20.4 28.9 20.4C27.0222 20.4 25.5 18.8778 25.5 17C25.5 15.1222 27.0222 13.6 28.9 13.6C30.7778 13.6 32.3 15.1222 32.3 17ZM34 17C34 19.8167 31.7167 22.1 28.9 22.1C26.0833 22.1 23.8 19.8167 23.8 17C23.8 14.1833 26.0833 11.9 28.9 11.9C31.7167 11.9 34 14.1833 34 17ZM20.4 28.9C20.4 30.7778 18.8778 32.3 17 32.3C15.1222 32.3 13.6 30.7778 13.6 28.9C13.6 27.0222 15.1222 25.5 17 25.5C18.8778 25.5 20.4 27.0222 20.4 28.9ZM22.1 28.9C22.1 31.7167 19.8167 34 17 34C14.1833 34 11.9 31.7167 11.9 28.9C11.9 26.0833 14.1833 23.8 17 23.8C19.8167 23.8 22.1 26.0833 22.1 28.9ZM3.64897 24.049C3.73045 23.9676 3.82439 23.9061 3.92464 23.8646C4.02485 23.8231 4.13476 23.8002 4.25 23.8002C4.3648 23.8002 4.47426 23.823 4.57417 23.8641C4.67488 23.9056 4.76921 23.9673 4.85104 24.049L6.55103 25.7491C6.88299 26.0811 6.88299 26.6193 6.55103 26.9511C6.21909 27.2831 5.68091 27.2831 5.34897 26.9511L5.1 26.7022V28.0502C5.1 28.5195 5.48056 28.9002 5.95 28.9002H9.35C9.81944 28.9002 10.2 29.2806 10.2 29.7502C10.2 30.2195 9.81944 30.6002 9.35 30.6002H5.95C4.54167 30.6002 3.4 29.4585 3.4 28.0502V26.7022L3.15104 26.9511C2.81909 27.2831 2.28091 27.2831 1.94897 26.9511C1.61701 26.6193 1.61701 26.0811 1.94897 25.7491L3.64897 24.049ZM30.0754 10.1355C30.1757 10.094 30.2695 10.0325 30.3511 9.95104L32.0511 8.25103C32.383 7.91909 32.383 7.38091 32.0511 7.04897C31.7191 6.71701 31.1809 6.71701 30.8489 7.04897L30.6 7.29791V5.95C30.6 4.54167 29.4583 3.4 28.05 3.4H24.65C24.1806 3.4 23.8 3.78056 23.8 4.25C23.8 4.71944 24.1806 5.1 24.65 5.1H28.05C28.5194 5.1 28.9 5.48056 28.9 5.95V7.29791L28.6511 7.04897C28.3191 6.71701 27.7809 6.71701 27.4489 7.04897C27.117 7.38091 27.117 7.91909 27.4489 8.25103L29.1489 9.95104C29.2308 10.0329 29.3252 10.0945 29.4258 10.136C29.5258 10.1772 29.6353 10.2 29.75 10.2C29.8653 10.2 29.9751 10.1771 30.0754 10.1355ZM9.95104 3.64897C10.0325 3.73045 10.094 3.82439 10.1355 3.92464C10.1771 4.02485 10.2 4.13476 10.2 4.25C10.2 4.3648 10.1772 4.47426 10.136 4.57417C10.0945 4.67488 10.0329 4.76921 9.95104 4.85104L8.25103 6.55103C7.91909 6.88299 7.38091 6.88299 7.04897 6.55103C6.71701 6.21909 6.71701 5.68091 7.04897 5.34897L7.29791 5.1H5.95C5.48056 5.1 5.1 5.48056 5.1 5.95V9.35C5.1 9.81944 4.71944 10.2 4.25 10.2C3.78056 10.2 3.4 9.81944 3.4 9.35V5.95C3.4 4.54167 4.54167 3.4 5.95 3.4H7.29791L7.04897 3.15104C6.71701 2.81909 6.71701 2.28091 7.04897 1.94897C7.38091 1.61701 7.91909 1.61701 8.25103 1.94897L9.95104 3.64897ZM23.8644 30.0756C23.9059 30.1757 23.9675 30.2697 24.0489 30.3511L25.7489 32.0511C26.0809 32.3831 26.6191 32.3831 26.9511 32.0511C27.283 31.7193 27.283 31.1811 26.9511 30.8491L26.7021 30.6002H28.05C29.4583 30.6002 30.6 29.4585 30.6 28.0502V24.6502C30.6 24.1806 30.2194 23.8002 29.75 23.8002C29.2806 23.8002 28.9 24.1806 28.9 24.6502V28.0502C28.9 28.5195 28.5194 28.9002 28.05 28.9002H26.7021L26.9511 28.6511C27.283 28.3193 27.283 27.7811 26.9511 27.4491C26.6191 27.117 26.0809 27.117 25.7489 27.4491L24.0489 29.149C23.9671 29.2308 23.9056 29.3252 23.8639 29.426C23.8228 29.5258 23.8 29.6353 23.8 29.7502C23.8 29.8654 23.823 29.9753 23.8644 30.0756Z" fill="currentColor"/>
</svg>
