<svg width="34" height="34" viewBox="0 0 34 34" fill="currentColor" xmlns="http://www.w3.org/2000/svg">
    <path fill-rule="evenodd" clip-rule="evenodd" d="M23.8 1.7H10.2V10.2C10.2 12.0778 8.67777 13.6 6.8 13.6H1.7V20.4H6.8C8.67777 20.4 10.2 21.9222 10.2 23.8V32.3H23.8V28.9C23.8 27.0222 25.3222 25.5 27.2 25.5H32.3V20.4H27.2C25.3222 20.4 23.8 18.8778 23.8 17C23.8 15.1222 25.3222 13.6 27.2 13.6H32.3V8.5H27.2C25.3222 8.5 23.8 6.97777 23.8 5.1V1.7ZM10.2 0C9.26112 0 8.5 0.761124 8.5 1.7V10.2C8.5 11.1389 7.73888 11.9 6.8 11.9H1.7C0.761124 11.9 0 12.6611 0 13.6V20.4C0 21.3389 0.761124 22.1 1.7 22.1H6.8C7.73888 22.1 8.5 22.8611 8.5 23.8V32.3C8.5 33.2389 9.26112 34 10.2 34H23.8C24.7389 34 25.5 33.2389 25.5 32.3V28.9C25.5 27.9611 26.2611 27.2 27.2 27.2H32.3C33.2389 27.2 34 26.4389 34 25.5V20.4C34 19.4611 33.2389 18.7 32.3 18.7H27.2C26.2611 18.7 25.5 17.9389 25.5 17C25.5 16.0611 26.2611 15.3 27.2 15.3H32.3C33.2389 15.3 34 14.5389 34 13.6V8.5C34 7.56112 33.2389 6.8 32.3 6.8H27.2C26.2611 6.8 25.5 6.03888 25.5 5.1V1.7C25.5 0.761124 24.7389 0 23.8 0H10.2Z" fill="currentColor"/>
</svg>
