<svg width="13" height="15" viewBox="0 0 13 15" fill="none" xmlns="http://www.w3.org/2000/svg">
    <path d="M6.4172 1.5899C5.12403 1.59135 3.86896 2.02784 2.85396 2.82912C1.83896 3.63041 1.12306 4.74988 0.821469 6.00739C1.28912 5.38954 2.06883 4.86271 3.0637 4.49241C4.05857 4.1221 5.22472 3.92464 6.4172 3.92456C7.61227 3.92533 8.78047 4.12432 9.776 4.4967C10.7715 4.86909 11.5503 5.39837 12.0151 6.01848C11.7156 4.75855 11.0003 3.63629 9.98462 2.83279C8.96898 2.02928 7.71224 1.59142 6.4172 1.58984V1.5899ZM0.819336 8.68376C1.11885 9.9437 1.83415 11.066 2.84978 11.8695C3.86542 12.673 5.12216 13.1108 6.4172 13.1124C7.71037 13.111 8.96544 12.6745 9.98045 11.8732C10.9955 11.0719 11.7113 9.95242 12.0129 8.69491C11.5453 9.31277 10.7656 9.83959 9.77071 10.2099C8.77584 10.5802 7.60969 10.7777 6.4172 10.7777C5.22214 10.777 4.05394 10.578 3.05841 10.2056C2.06288 9.83322 1.28413 9.30393 0.819336 8.68382V8.68376Z" fill="currentColor"/>
    <path d="M0.490234 13.5793C0.490234 13.8994 0.617376 14.2063 0.84369 14.4326C1.07 14.659 1.37695 14.7861 1.69701 14.7861C2.01706 14.7861 2.32401 14.659 2.55033 14.4326C2.77664 14.2063 2.90378 13.8994 2.90378 13.5793C2.90378 13.4209 2.87257 13.2639 2.81192 13.1175C2.75127 12.9711 2.66238 12.8381 2.55033 12.726C2.43827 12.614 2.30523 12.5251 2.15882 12.4644C2.01241 12.4038 1.85548 12.3726 1.69701 12.3726C1.53853 12.3726 1.38161 12.4038 1.2352 12.4644C1.08878 12.5251 0.955749 12.614 0.84369 12.726C0.731631 12.8381 0.64274 12.9711 0.582094 13.1175C0.521448 13.2639 0.490234 13.4209 0.490234 13.5793Z" fill="currentColor"/>
    <path d="M0 1.9419C0 2.17695 0.0933715 2.40237 0.259574 2.56857C0.425776 2.73477 0.651195 2.82814 0.88624 2.82814C1.12129 2.82814 1.3467 2.73477 1.51291 2.56857C1.67911 2.40237 1.77248 2.17695 1.77248 1.9419C1.77248 1.70686 1.67911 1.48144 1.51291 1.31524C1.3467 1.14904 1.12129 1.05566 0.88624 1.05566C0.651195 1.05566 0.425776 1.14904 0.259574 1.31524C0.0933715 1.48144 0 1.70686 0 1.9419Z" fill="currentColor"/>
    <path d="M10.1816 1.13136C10.1816 1.43142 10.3008 1.71918 10.513 1.93135C10.7252 2.14352 11.0129 2.26272 11.313 2.26272C11.6131 2.26272 11.9008 2.14352 12.113 1.93135C12.3252 1.71918 12.4444 1.43142 12.4444 1.13136C12.4444 0.831305 12.3252 0.543539 12.113 0.331368C11.9008 0.119197 11.6131 0 11.313 0C11.0129 0 10.7252 0.119197 10.513 0.331368C10.3008 0.543539 10.1816 0.831305 10.1816 1.13136Z" fill="currentColor"/>
</svg>
