<svg width="30" height="29" viewBox="0 0 30 29" fill="none" xmlns="http://www.w3.org/2000/svg">
    <path d="M27.0542 0.0837563H2.94584C2.67161 0.0835154 2.40003 0.137289 2.14659 0.242007C1.89315 0.346725 1.66282 0.500336 1.46874 0.69407C1.27467 0.887804 1.12065 1.11787 1.01549 1.37112C0.910327 1.62438 0.856076 1.89587 0.855836 2.17009V26.2784C0.855595 26.553 0.90949 26.8248 1.01444 27.0785C1.11938 27.3322 1.27332 27.5627 1.46744 27.7568C1.66157 27.9509 1.89206 28.1049 2.14574 28.2098C2.39942 28.3148 2.67131 28.3687 2.94584 28.3684H27.0542C27.3285 28.3684 27.6002 28.3144 27.8537 28.2093C28.1072 28.1042 28.3374 27.9503 28.5314 27.7562C28.7253 27.5621 28.8791 27.3317 28.9839 27.0781C29.0887 26.8245 29.1426 26.5528 29.1423 26.2784V2.17192C29.1423 1.89755 29.0883 1.62586 28.9832 1.37239C28.8782 1.11892 28.7242 0.888646 28.5301 0.694718C28.336 0.500789 28.1056 0.347015 27.852 0.242183C27.5984 0.13735 27.3267 0.0835154 27.0523 0.0837563H27.0542ZM9.28734 24.1756H5.034V10.6676H9.28734V24.1756ZM7.157 8.79759C6.6745 8.79469 6.20367 8.64892 5.80394 8.37867C5.40421 8.10842 5.0935 7.72581 4.91103 7.27913C4.72856 6.83246 4.6825 6.34173 4.77867 5.8689C4.87484 5.39607 5.10893 4.96233 5.4514 4.62242C5.79386 4.28252 6.22934 4.05168 6.70288 3.95905C7.17642 3.86643 7.66678 3.91616 8.11208 4.10197C8.55738 4.28778 8.93765 4.60135 9.2049 5.00309C9.47214 5.40484 9.61439 5.87675 9.61367 6.35926C9.61818 6.68226 9.55757 7.00287 9.43548 7.30194C9.31338 7.60101 9.13229 7.87243 8.90302 8.1C8.67374 8.32756 8.40097 8.50661 8.10099 8.62646C7.80101 8.74632 7.47997 8.80451 7.157 8.79759ZM24.9623 24.1903H20.7108V16.8093C20.7108 14.6331 19.785 13.9621 18.5915 13.9621C17.3302 13.9621 16.0927 14.9118 16.0927 16.8643V24.1903H11.8393V10.6786H15.9295V12.5504H15.9845C16.3952 11.7199 17.8325 10.3009 20.027 10.3009C22.4012 10.3009 24.9642 11.7089 24.9642 15.8339L24.9623 24.1903Z" fill="#3A5A97"/>
</svg>
