<svg width="30" height="30" viewBox="0 0 30 30" fill="none" xmlns="http://www.w3.org/2000/svg">
    <path d="M27.2235 0.904115H2.99529C2.7197 0.903873 2.44677 0.957914 2.19207 1.06315C1.93737 1.16839 1.70589 1.32277 1.51085 1.51746C1.31581 1.71216 1.16103 1.94337 1.05535 2.19788C0.94966 2.4524 0.89514 2.72524 0.894898 3.00082V27.229C0.894656 27.5049 0.948819 27.7781 1.05429 28.0331C1.15976 28.288 1.31446 28.5197 1.50955 28.7148C1.70464 28.9098 1.93628 29.0645 2.19122 29.17C2.44616 29.2755 2.71939 29.3296 2.99529 29.3294H27.2235C27.4992 29.3294 27.7723 29.2751 28.027 29.1695C28.2817 29.0639 28.5131 28.9092 28.708 28.7141C28.9029 28.519 29.0575 28.2875 29.1628 28.0327C29.2682 27.7778 29.3223 27.5047 29.322 27.229V3.00266C29.322 2.72692 29.2677 2.45389 29.1621 2.19916C29.0565 1.94443 28.9018 1.71301 28.7067 1.51811C28.5117 1.32322 28.2801 1.16868 28.0253 1.06333C27.7705 0.957975 27.4974 0.903872 27.2216 0.904115H27.2235ZM9.36832 25.1157H5.09384V11.5406H9.36832V25.1157ZM7.22739 9.66127C6.74249 9.65836 6.26932 9.51186 5.8676 9.24027C5.46589 8.96868 5.15363 8.58416 4.97025 8.13526C4.78687 7.68637 4.74058 7.1932 4.83724 6.71802C4.93389 6.24284 5.16914 5.80694 5.51331 5.46535C5.85747 5.12375 6.29512 4.89177 6.77101 4.79868C7.2469 4.70559 7.73971 4.75557 8.18722 4.94231C8.63473 5.12904 9.01689 5.44417 9.28547 5.84791C9.55404 6.25165 9.69699 6.7259 9.69627 7.21081C9.7008 7.53543 9.6399 7.85762 9.51719 8.15818C9.39449 8.45875 9.2125 8.73151 8.98209 8.96021C8.75167 9.1889 8.47755 9.36884 8.17608 9.48929C7.87461 9.60974 7.55196 9.66823 7.22739 9.66127ZM25.1212 25.1305H20.8486V17.7128C20.8486 15.5258 19.9182 14.8514 18.7187 14.8514C17.4511 14.8514 16.2075 15.8058 16.2075 17.768V25.1305H11.933V11.5516H16.0435V13.4328H16.0988C16.5115 12.5981 17.956 11.1721 20.1614 11.1721C22.5473 11.1721 25.1231 12.5871 25.1231 16.7326L25.1212 25.1305Z" fill="#5C5C66"/>
</svg>
