<svg width="34" height="33" viewBox="0 0 34 33" fill="currentColor" xmlns="http://www.w3.org/2000/svg">
    <path fill-rule="evenodd" clip-rule="evenodd" d="M33.8571 11.4694C33.5967 11.8582 33.069 11.9633 32.6784 11.7041L17.8067 1.83441C17.6672 1.74176 17.5031 1.69231 17.3353 1.69231H16.6647C16.4969 1.69231 16.3329 1.74176 16.1933 1.83441L1.32167 11.704C0.931068 11.9633 0.403342 11.8582 0.142939 11.4694C-0.117448 11.0805 -0.0119128 10.5552 0.378692 10.2959L15.2503 0.426326C15.6692 0.148348 16.1613 0 16.6647 0H17.3353C17.8387 0 18.3308 0.148348 18.7497 0.426326L33.6213 10.296C34.012 10.5552 34.1176 11.0805 33.8571 11.4694ZM0.142837 17.2998C0.403241 16.9111 0.930983 16.806 1.32157 17.0652L16.1931 26.9348C16.3329 27.0275 16.4969 27.0769 16.6647 27.0769H17.3352C17.503 27.0769 17.667 27.0275 17.8067 26.9348L32.6784 17.0652C33.0689 16.806 33.5965 16.9111 33.857 17.2998C34.1174 17.6887 34.0118 18.214 33.6212 18.4732L18.7497 28.3429C18.3308 28.6208 17.8387 28.7692 17.3352 28.7692H16.6647C16.1612 28.7692 15.669 28.6208 15.2501 28.3429L0.378591 18.4732C-0.0119975 18.214 -0.117549 17.6887 0.142837 17.2998ZM1.32157 21.296C0.930983 21.0367 0.403241 21.1418 0.142837 21.5306C-0.117549 21.9194 -0.0119975 22.4447 0.378591 22.704L15.2501 32.5737C15.669 32.8516 16.1612 33 16.6647 33H17.3352C17.8387 33 18.3308 32.8516 18.7497 32.5737L33.6212 22.704C34.0118 22.4447 34.1174 21.9194 33.857 21.5306C33.5965 21.1418 33.0689 21.0367 32.6784 21.296L17.8067 31.1655C17.667 31.2583 17.503 31.3077 17.3352 31.3077H16.6647C16.4969 31.3077 16.3329 31.2583 16.1931 31.1655L1.32157 21.296ZM15.6044 15.1399C16.4466 14.5811 17.541 14.5709 18.3934 15.114L20.5333 16.4773C22.1006 17.4758 22.1006 19.755 20.5333 20.7534L17.4581 22.7126C17.2757 22.8289 17.0654 22.8671 16.8672 22.8358C16.6565 22.869 16.4335 22.8238 16.2453 22.6922L13.4415 20.7291C11.9753 19.7027 12.0025 17.5304 13.4939 16.5406L15.6044 15.1399ZM16.8831 21.0697L19.6169 19.328C20.1393 18.9953 20.1393 18.2355 19.6169 17.9028L17.4771 16.5394C17.1929 16.3584 16.8281 16.3617 16.5474 16.5481L14.4369 17.9486C13.9398 18.2786 13.9308 19.0028 14.4194 19.3448L16.8831 21.0697ZM11.5935 10.0371C10.7411 9.49396 9.64661 9.50415 8.80449 10.063L6.694 11.4637C5.2026 12.4535 5.1754 14.6258 6.64155 15.6522L9.44538 17.6152C9.63349 17.7469 9.85666 17.7921 10.0672 17.7589C10.2655 17.7902 10.4757 17.752 10.6582 17.6357L13.7334 15.6765C15.3006 14.6781 15.3006 12.3989 13.7334 11.4004L11.5935 10.0371ZM12.817 14.2511L10.0833 15.9928L7.6195 14.2678C7.13077 13.9258 7.13985 13.2017 7.63698 12.8718L9.74747 11.4711C10.0282 11.2848 10.393 11.2814 10.6772 11.4625L12.817 12.8258C13.3394 13.1586 13.3394 13.9184 12.817 14.2511ZM22.4043 10.063C23.2465 9.50415 24.341 9.49396 25.1933 10.0371L27.3333 11.4004C28.9005 12.3989 28.9005 14.6781 27.3333 15.6765L24.258 17.6357C24.0756 17.752 23.8653 17.7902 23.6671 17.7589C23.4565 17.7921 23.2334 17.7469 23.0452 17.6152L20.2415 15.6522C18.7752 14.6258 18.8024 12.4535 20.2938 11.4637L22.4043 10.063ZM23.6831 15.9928L26.4168 14.2511C26.9392 13.9184 26.9392 13.1586 26.4168 12.8258L24.277 11.4625C23.9928 11.2814 23.628 11.2848 23.3473 11.4711L21.2368 12.8718C20.7397 13.2017 20.7307 13.9258 21.2193 14.2678L23.6831 15.9928ZM18.3934 4.96017C17.541 4.41704 16.4466 4.42723 15.6044 4.98611L13.4939 6.38675C12.0025 7.37653 11.9753 9.54876 13.4415 10.5752L16.2453 12.5383C16.4335 12.67 16.6565 12.7151 16.8672 12.6819C17.0654 12.7132 17.2757 12.6751 17.4581 12.5589L20.5333 10.5996C22.1006 9.60114 22.1006 7.32196 20.5333 6.32348L18.3934 4.96017ZM19.6169 9.17424L16.8831 10.9159L14.4194 9.19101C13.9308 8.84884 13.9398 8.12477 14.4369 7.79484L16.5474 6.3942C16.8281 6.20789 17.1929 6.20451 17.4771 6.38555L19.6169 7.74886C20.1393 8.08168 20.1393 8.84141 19.6169 9.17424Z" fill="currentColor"/>
</svg>
