<svg width="34" height="34" viewBox="0 0 34 34" fill="currentColor" xmlns="http://www.w3.org/2000/svg">
    <path fill-rule="evenodd" clip-rule="evenodd" d="M4.25 0C3.78056 0 3.4 0.380562 3.4 0.85C3.4 1.31944 3.78056 1.7 4.25 1.7H29.75C30.2194 1.7 30.6 1.31944 30.6 0.85C30.6 0.380562 30.2194 0 29.75 0H4.25ZM27.2 10.2C27.2 12.0778 25.6778 13.6 23.8 13.6C21.9222 13.6 20.4 12.0778 20.4 10.2C20.4 8.32223 21.9222 6.8 23.8 6.8C25.6778 6.8 27.2 8.32223 27.2 10.2ZM28.9 10.2C28.9 13.0166 26.6167 15.3 23.8 15.3C20.9833 15.3 18.7 13.0166 18.7 10.2C18.7 7.38336 20.9833 5.1 23.8 5.1C26.6167 5.1 28.9 7.38336 28.9 10.2ZM33.15 3.4C33.6194 3.4 34 3.78056 34 4.25V29.75C34 30.2194 33.6194 30.6 33.15 30.6C32.6806 30.6 32.3 30.2194 32.3 29.75V4.25C32.3 3.78056 32.6806 3.4 33.15 3.4ZM4.25 32.3C3.78056 32.3 3.4 32.6806 3.4 33.15C3.4 33.6194 3.78056 34 4.25 34H29.75C30.2194 34 30.6 33.6194 30.6 33.15C30.6 32.6806 30.2194 32.3 29.75 32.3H4.25ZM0.85 3.4C1.31944 3.4 1.7 3.78056 1.7 4.25V29.75C1.7 30.2194 1.31944 30.6 0.85 30.6C0.380562 30.6 0 30.2194 0 29.75V4.25C0 3.78056 0.380562 3.4 0.85 3.4ZM5.95 11.9C5.48056 11.9 5.1 12.2806 5.1 12.75C5.1 13.2194 5.48056 13.6 5.95 13.6H14.45C14.9194 13.6 15.3 13.2194 15.3 12.75C15.3 12.2806 14.9194 11.9 14.45 11.9H5.95ZM5.1 7.65C5.1 7.18056 5.48056 6.8 5.95 6.8H14.45C14.9194 6.8 15.3 7.18056 15.3 7.65C15.3 8.11944 14.9194 8.5 14.45 8.5H5.95C5.48056 8.5 5.1 8.11944 5.1 7.65ZM5.95 18.7C5.48056 18.7 5.1 19.0806 5.1 19.55C5.1 20.0194 5.48056 20.4 5.95 20.4H26.35C26.8194 20.4 27.2 20.7806 27.2 21.25V26.35C27.2 26.8194 26.8194 27.2 26.35 27.2H5.95C5.48056 27.2 5.1 27.5806 5.1 28.05C5.1 28.5194 5.48056 28.9 5.95 28.9H26.35C27.7583 28.9 28.9 27.7583 28.9 26.35V21.25C28.9 19.8417 27.7583 18.7 26.35 18.7H5.95Z" fill="currentColor"/>
</svg>
