<svg width="36" height="36" viewBox="0 0 36 36" fill="none" xmlns="http://www.w3.org/2000/svg">
    <path d="M18.9998 20.7231H21.0002V18.7237H18.9998V20.7231ZM21.0004 8.99719H9.00023V11H21.0004V8.99719ZM16.9996 15.6583H21.0002V13.6595H16.9996V15.6583ZM16.9996 18.7237H9.00019V20.7231H16.9998L16.9996 18.7237ZM31 6.9982V4.99922H27V3H3V28.9878C3 32.3002 5.68621 34.985 9 34.985H28.999C32.313 34.985 35 32.3 35 28.9879V6.99824L31 6.9982ZM24.9998 32.987H9.00019C7.89539 32.987 4.99961 31.0296 4.99961 28.9878V4.99816H24.9998V32.987ZM33 29.9886C33 31.6442 31.6566 32.987 30 32.987C28.3434 32.987 27 31.6442 27 29.9886V6.9982H28.9992V29.9886C28.9992 30.5406 29.4474 30.988 30 30.988C30.5522 30.988 31 30.5406 31 29.9886V8.99719H33V29.9886ZM14.9998 13.6595H9.00019V15.6583H14.9998V13.6595ZM20.9998 26.9888H9.00019V28.9877H20.9998V26.9888Z" fill="currentColor"/>
</svg>
