<svg width="14" height="14" viewBox="0 0 14 14" fill="none" xmlns="http://www.w3.org/2000/svg">
    <path d="M8.27344 11.9538C8.27344 12.1054 8.33365 12.2508 8.44083 12.358C8.54801 12.4652 8.69338 12.5254 8.84496 12.5254C8.99654 12.5254 9.1419 12.4652 9.24909 12.358C9.35627 12.2508 9.41648 12.1054 9.41648 11.9538C9.41648 11.8023 9.35627 11.6569 9.24909 11.5497C9.1419 11.4425 8.99654 11.3823 8.84496 11.3823C8.69338 11.3823 8.54801 11.4425 8.44083 11.5497C8.33365 11.6569 8.27344 11.8023 8.27344 11.9538Z" fill="currentColor"/>
    <path d="M4.74609 2.29418C4.74609 2.44575 4.80631 2.59112 4.91349 2.6983C5.02067 2.80549 5.16604 2.8657 5.31761 2.8657C5.46919 2.8657 5.61456 2.80549 5.72174 2.6983C5.82892 2.59112 5.88914 2.44575 5.88914 2.29418C5.88914 2.1426 5.82892 1.99723 5.72174 1.89005C5.61456 1.78287 5.46919 1.72266 5.31761 1.72266C5.16604 1.72266 5.02067 1.78287 4.91349 1.89005C4.80631 1.99723 4.74609 2.1426 4.74609 2.29418Z" fill="currentColor"/>
    <path d="M11.8065 10.6655H6.78997C6.54816 10.6655 6.35222 10.4696 6.35222 10.2278C6.35222 9.98597 6.54816 9.79004 6.78997 9.79004H11.8065C12.5332 9.79004 13.1245 9.19873 13.1245 8.47207V5.52744C13.1245 4.80078 12.5332 4.20948 11.8065 4.20948H10.4094C10.1676 4.20948 9.97168 4.01354 9.97168 3.77173C9.97168 3.52992 10.1676 3.33398 10.4094 3.33398H11.8065C13.0159 3.33398 14 4.31804 14 5.52744V8.47207C14 9.68148 13.0159 10.6655 11.8065 10.6655ZM3.59057 10.6655H2.19346C0.984053 10.6655 0 9.68148 0 8.47207V5.52744C0 4.31804 0.984053 3.33398 2.19346 3.33398H7.21003C7.45184 3.33398 7.64778 3.52992 7.64778 3.77173C7.64778 4.01354 7.45184 4.20948 7.21003 4.20948H2.19346C1.4668 4.20948 0.875492 4.80078 0.875492 5.52744V8.47207C0.875492 9.19873 1.4668 9.79004 2.19346 9.79004H3.59057C3.83238 9.79004 4.02832 9.98597 4.02832 10.2278C4.02832 10.4696 3.83221 10.6655 3.59057 10.6655Z" fill="currentColor"/>
    <path d="M8.46052 14H5.53882C4.32312 14 3.33398 13.0109 3.33398 11.7952V8.70765C3.33398 7.52468 4.2965 6.56217 5.47947 6.56217H8.52005C9.22027 6.56217 9.79004 5.99239 9.79004 5.29218V2.20484C9.79004 1.47188 9.19366 0.875492 8.46069 0.875492H5.53882C4.80586 0.875492 4.20948 1.47188 4.20948 2.20484V3.59057C4.20948 3.83238 4.01354 4.02832 3.77173 4.02832C3.52992 4.02832 3.33398 3.83238 3.33398 3.59057V2.20484C3.33398 0.989131 4.32312 0 5.53882 0H8.46052C9.67623 0 10.6654 0.989131 10.6654 2.20484V5.29218C10.6654 6.47514 9.70284 7.43766 8.51988 7.43766H5.47947C4.77925 7.43766 4.20948 8.00743 4.20948 8.70765V11.795C4.20948 12.5279 4.80586 13.1243 5.53882 13.1243H8.46052C9.19348 13.1243 9.78987 12.5279 9.78987 11.795V10.4093C9.78987 10.1674 9.9858 9.97151 10.2276 9.97151C10.4694 9.97151 10.6654 10.1674 10.6654 10.4093V11.795C10.6655 13.0109 9.6764 14 8.46052 14Z" fill="currentColor"/>
</svg>
