<svg width="34" height="34" viewBox="0 0 34 34" fill="currentColor" xmlns="http://www.w3.org/2000/svg">
    <path fill-rule="evenodd" clip-rule="evenodd" d="M0.85 0C0.380562 0 0 0.380562 0 0.85C0 1.31944 0.380562 1.7 0.85 1.7H5.95C20.5027 1.7 32.3 13.4973 32.3 28.05V32.3C32.3 32.7694 32.6806 33.15 33.15 33.15C33.6194 33.15 34 32.7694 34 32.3V28.05C34 12.5584 21.4416 0 5.95 0H0.85ZM0 5.95C0 5.48056 0.380562 5.1 0.85 5.1H5.95C18.6249 5.1 28.9 15.3751 28.9 28.05V33.15C28.9 33.6194 28.5194 34 28.05 34C27.5806 34 27.2 33.6194 27.2 33.15V28.05C27.2 16.3139 17.6861 6.8 5.95 6.8H0.85C0.380562 6.8 0 6.41944 0 5.95ZM0.85 10.2C0.380562 10.2 0 10.5806 0 11.05C0 11.5194 0.380562 11.9 0.85 11.9H4.25C14.1083 11.9 22.1 19.8917 22.1 29.75V33.15C22.1 33.6194 22.4806 34 22.95 34C23.4194 34 23.8 33.6194 23.8 33.15V29.75C23.8 18.9528 15.0472 10.2 4.25 10.2H0.85ZM0.85 15.3C0.380562 15.3 0 15.6806 0 16.15C0 16.6194 0.380562 17 0.85 17H2.55C10.5305 17 17 23.4695 17 31.45V33.15C17 33.6194 17.3806 34 17.85 34C18.3194 34 18.7 33.6194 18.7 33.15V31.45C18.7 22.5306 11.4694 15.3 2.55 15.3H0.85ZM0.85 20.4C0.380562 20.4 0 20.7806 0 21.25C0 21.7194 0.380562 22.1 0.85 22.1C6.95274 22.1 11.9 27.0472 11.9 33.15C11.9 33.6194 12.2806 34 12.75 34C13.2194 34 13.6 33.6194 13.6 33.15C13.6 26.1084 7.89164 20.4 0.85 20.4ZM0 26.35C0 25.8806 0.380562 25.5 0.85 25.5C5.07498 25.5 8.5 28.925 8.5 33.15C8.5 33.6194 8.11944 34 7.65 34C7.18056 34 6.8 33.6194 6.8 33.15C6.8 29.8639 4.1361 27.2 0.85 27.2C0.380562 27.2 0 26.8194 0 26.35Z" fill="currentColor"/>
</svg>
