<svg width="155" height="63" viewBox="0 0 155 63" fill="none" xmlns="http://www.w3.org/2000/svg">
    <path d="M136.517 11.1701C118.93 -2.08794 94.5359 3.92186 84.304 21.8514C84.4966 21.8296 84.6908 21.8093 84.885 21.7922C95.2163 4.72047 118.957 -0.882234 135.871 12.0296C149.628 22.3662 152.999 40.3378 146.64 54.5926H147.362C153.936 40.1304 150.543 21.8514 136.517 11.1701Z" fill="#C43959"/>
    <path d="M146.393 35.4419C144.24 18.1282 127.732 5.61561 110.557 8.29065C101.043 9.79272 93.7506 14.9322 89.1753 21.722H89.9832C99.7396 8.54021 119.206 4.73745 133.297 15.461C145.926 24.9757 148.623 41.812 141.967 54.5898H142.91C145.857 49.1337 147.266 42.6075 146.393 35.4419Z" fill="#221F20"/>
    <path d="M142.463 35.9957C140.614 20.8252 126.151 9.85835 111.107 12.2433C103.924 13.4022 98.2034 16.9382 94.2231 21.7221H95.4955C97.276 19.8577 99.317 18.2631 101.554 16.9881C121.863 5.55958 145.91 23.7748 140.538 46.518C139.846 49.3811 138.687 52.1096 137.108 54.5931H138.211C141.568 49.4863 143.299 43.1068 142.463 35.9957Z" fill="#C43959"/>
    <path d="M138.519 36.5478C137.444 27.1064 130.158 18.8535 120.953 16.6293C113.411 14.6156 105.553 16.8555 99.9148 21.722H101.987C102.539 21.3461 103.104 20.9827 103.696 20.6489C120.751 11.2028 140.808 26.3936 136.441 45.4495C135.668 48.8097 134.121 51.9413 131.925 54.593H133.157C137.109 49.951 139.346 43.6885 138.519 36.5478Z" fill="#221F20"/>
    <path d="M134.583 37.1015C133.408 26.2641 122.912 18.3076 112.211 20.1466C110.453 20.4435 108.742 20.9732 107.123 21.722H114.655C117.908 21.7217 121.099 22.6183 123.879 24.314C126.659 26.0097 128.922 28.4394 130.421 31.3381C132.537 35.0301 133.405 39.5488 132.347 44.3872C131.463 48.4296 129.206 52.0374 125.963 54.5929H127.373C132.271 50.7106 135.387 44.4762 134.583 37.1015Z" fill="#C43959"/>
    <path d="M138.89 8.00228C118.748 -7.2476 90.4572 0.368761 79.739 21.7938H80.0792C90.8627 0.936518 118.767 -6.42404 138.449 8.59812C153.404 19.8394 157.393 39.1197 151.115 54.836C151.271 54.8641 151.426 54.8921 151.581 54.9249C158.063 39.0511 154.072 19.515 138.89 8.00228Z" fill="#221F20"/>
    <path d="M127.93 31.6078C126.785 29.3713 124.999 27.5298 122.803 26.3201C120.596 25.0988 117.928 24.478 114.88 24.478H103.918V55.2402H114.793C117.874 55.2402 120.563 54.6162 122.786 53.3918C124.996 52.1807 126.791 50.3294 127.938 48.0792C129.131 45.7894 129.735 43.013 129.735 39.8295C129.735 36.6459 129.123 33.8898 127.93 31.6078ZM110.599 30.2851H114.534C116.398 30.2851 117.975 30.6189 119.24 31.2803C120.512 31.9552 121.518 33.0441 122.093 34.3686C122.737 35.7725 123.063 37.6083 123.063 39.8279C123.063 42.0475 122.737 43.9192 122.093 45.3262C121.45 46.7331 120.492 47.7688 119.232 48.4286C117.972 49.0884 116.376 49.4331 114.518 49.4331H110.599V30.2851Z" fill="#221F20"/>
    <path d="M94.4581 33.2472L103.433 24.4781L102.627 24.5716H83.5971L81.3584 29.8235H90.4871L82.8249 38.5271L89.9527 37.5647H89.9667C91.2644 37.6369 92.5126 38.0895 93.5569 38.8663C94.6012 39.6431 95.3959 40.7102 95.8426 41.9356C96.2894 43.161 96.3686 44.491 96.0706 45.7611C95.7726 47.0313 95.1103 48.1859 94.1657 49.0822C93.2211 49.9785 92.0356 50.5772 90.7557 50.8043C89.4758 51.0314 88.1577 50.877 86.9643 50.36C85.771 49.8431 84.7547 48.9863 84.0411 47.8957C83.3275 46.805 82.9479 45.5283 82.9492 44.2234V43.9239H77.6313V44.2234C77.6313 50.8572 82.9896 56.2525 89.5736 56.2525C96.1577 56.2525 101.516 50.8494 101.516 44.2203C101.524 41.9016 100.861 39.6303 99.6085 37.6824C98.3556 35.7345 96.5664 34.1938 94.4581 33.2472Z" fill="#221F20"/>
    <path d="M0 31.129L0.170893 24.4968H21.7748L19.8142 31.129H14.066V55.3057H6.39139V31.129H0Z" fill="#221F20"/>
    <path d="M21.9445 28.2184C21.9368 27.6984 22.0327 27.1822 22.2267 26.7C22.4207 26.2178 22.7087 25.7795 23.0739 25.4107C23.4243 25.0321 23.85 24.7316 24.3234 24.5288C24.7969 24.3259 25.3075 24.2252 25.8222 24.2331C26.8614 24.2356 27.8574 24.6511 28.5922 25.3889C29.327 26.1267 29.741 27.1266 29.7434 28.17C29.7478 28.6825 29.6474 29.1905 29.4483 29.6624C29.2492 30.1344 28.9557 30.5603 28.586 30.9137C27.8206 31.6842 26.9403 32.0695 25.9449 32.0695C24.8983 32.0824 23.8883 31.6832 23.1314 30.9573C22.7492 30.6132 22.4454 30.1904 22.2405 29.7178C22.0357 29.2451 21.9347 28.7337 21.9445 28.2184ZM22.1573 55.2994V36.5617L29.1888 32.9242V55.2994H22.1573Z" fill="#221F20"/>
    <path d="M47.0855 35.8349V27.2701L54.1154 23.5875V55.2995H47.4257V52.9037C46.5433 54.2451 45.3641 55.0869 43.8882 55.429C42.4123 55.7711 41.3186 55.9421 40.6071 55.9421C38.2488 55.9421 36.211 55.1004 34.4938 53.4168C32.7766 51.7333 31.7963 50.0867 31.5529 48.477C31.3105 46.8652 31.1759 45.8451 31.149 45.4167C31.122 44.9883 31.1075 44.5895 31.1055 44.2203C31.1055 41.4252 31.8154 39.0507 33.2354 37.0968C34.6554 35.1429 36.0054 34.0235 37.2856 33.7386C38.5636 33.4526 39.3736 33.2966 39.7154 33.2706C40.0556 33.2425 40.4238 33.227 40.8215 33.227C42.9683 33.2124 45.0457 33.9895 46.6598 35.4107L47.0855 35.8349ZM38.3498 44.1767C38.3498 45.7458 38.6833 47.0295 39.3503 48.0278C40.0173 49.026 40.7205 49.6104 41.46 49.781C42.0033 49.9238 42.5599 50.0095 43.1208 50.0368C43.6489 50.0516 44.1742 49.9545 44.6624 49.7518C45.1507 49.5492 45.5909 49.2456 45.9545 48.8607C46.7074 48.0777 47.0844 47.0295 47.0855 45.7162C47.0855 43.2923 46.8649 41.6025 46.4237 40.6469C45.9825 39.6912 45.3507 39.1193 44.5283 38.9311C43.9684 38.7858 43.3963 38.6929 42.8194 38.6535C42.2089 38.6444 41.6043 38.7745 41.051 39.0338C40.4978 39.2932 40.0103 39.6751 39.6252 40.1508C38.7749 41.1481 38.3498 42.49 38.3498 44.1767Z" fill="#221F20"/>
    <path d="M54.8423 33.7385H62.5123L66.6883 45.5929L67.1155 47.3851C67.1435 47.6425 67.1807 47.8842 67.2227 48.1135C67.2692 48.396 67.2905 48.682 67.2864 48.9683L67.5412 47.343L67.9249 45.5024L72.2749 33.7385H80.0303L67.5381 63.0001H59.6584L63.707 54.5773L54.8423 33.7385Z" fill="#221F20"/>
</svg>
