<svg width="34" height="34" viewBox="0 0 34 34" fill="currentColor" xmlns="http://www.w3.org/2000/svg">
    <path fill-rule="evenodd" clip-rule="evenodd" d="M19.2885 1.96155C18.7467 1.96155 18.3076 2.40064 18.3076 2.94231V5.88462H21.25C21.7916 5.88462 22.2307 6.32373 22.2307 6.86538C22.2307 7.40705 21.7916 7.84615 21.25 7.84615H17.3269H11.4423C10.9006 7.84615 10.4615 8.28526 10.4615 8.82693V16.6731C10.4615 17.2147 10.9006 17.6538 11.4423 17.6538H14.3846V14.7115C14.3846 13.0865 15.7019 11.7692 17.3269 11.7692H25.1731C25.7147 11.7692 26.1538 11.3301 26.1538 10.7885V8.82693V2.94231C26.1538 2.40064 25.7147 1.96155 25.1731 1.96155H19.2885ZM16.3462 2.94231V5.88462H11.4423C9.81731 5.88462 8.5 7.20193 8.5 8.82693V16.6731C8.5 18.2981 9.81731 19.6154 11.4423 19.6154H14.3846V22.5576C14.3846 24.1827 15.7019 25.5 17.3269 25.5H23.2115C24.8365 25.5 26.1538 24.1827 26.1538 22.5576V19.6154H31.0576C32.6827 19.6154 34 18.2981 34 16.6731V10.7885C34 9.16348 32.6827 7.84615 31.0576 7.84615H28.1154V2.94231C28.1154 1.31731 26.7981 0 25.1731 0H19.2885C17.6635 0 16.3462 1.31731 16.3462 2.94231ZM24.1924 22.5576V19.6154H21.25C20.7084 19.6154 20.2693 19.1763 20.2693 18.6346C20.2693 18.0929 20.7084 17.6538 21.25 17.6538H25.1731H31.0576C31.5994 17.6538 32.0385 17.2147 32.0385 16.6731V10.7885C32.0385 10.2468 31.5994 9.80769 31.0576 9.80769H28.1154V10.7885C28.1154 12.4135 26.7981 13.7307 25.1731 13.7307H17.3269C16.7853 13.7307 16.3462 14.1698 16.3462 14.7115V18.6346V22.5576C16.3462 23.0994 16.7853 23.5385 17.3269 23.5385H23.2115C23.7533 23.5385 24.1924 23.0994 24.1924 22.5576ZM12.75 34C5.70836 34 0 28.2916 0 21.25V0.85C0 0.380562 0.380562 0 0.85 0C1.31944 0 1.7 0.380562 1.7 0.85V21.2485C1.7 27.3511 6.64726 32.3 12.75 32.3H33.15C33.6194 32.3 34 32.6806 34 33.15C34 33.6194 33.6194 34 33.15 34H12.75ZM13.6 28.05C13.6 28.5194 13.2194 28.9 12.75 28.9C8.52502 28.9 5.1 25.475 5.1 21.25C5.1 20.7806 5.48056 20.4 5.95 20.4C6.41944 20.4 6.8 20.7806 6.8 21.25C6.8 24.5361 9.4639 27.2 12.75 27.2C13.2194 27.2 13.6 27.5806 13.6 28.05Z" fill="currentColor"/>
</svg>
