<svg width="34" height="34" viewBox="0 0 34 34" fill="none" xmlns="http://www.w3.org/2000/svg">
    <path d="M26.775 11.9C26.0312 12.2188 25.2875 12.4313 24.4375 12.5375C25.2875 12.0063 25.925 11.2625 26.2437 10.3063C25.5 10.7313 24.65 11.1563 23.6937 11.2625C22.95 10.5188 21.8875 9.98751 20.825 9.98751C18.5937 9.98751 16.7875 11.7938 16.7875 14.025C16.7875 14.3438 16.7875 14.6625 16.8937 14.9813C13.6 14.7688 10.625 13.2813 8.60623 10.8375C8.28748 11.475 8.07498 12.1125 8.07498 12.8563C8.07498 14.2375 8.71248 15.4063 9.77498 16.15C9.13748 16.15 8.49998 15.9375 7.86248 15.6188C7.86248 17.5313 9.34998 19.125 11.1562 19.55C10.8375 19.6563 10.5187 19.6563 10.2 19.6563C9.98748 19.6563 9.66873 19.6563 9.45622 19.55C9.98747 21.1438 11.475 22.3125 13.175 22.3125C11.7937 23.375 10.0937 24.0125 8.18123 24.0125C7.86248 24.0125 7.54373 24.0125 7.22498 23.9063C9.03123 25.075 11.05 25.7125 13.3875 25.7125C20.7187 25.7125 24.7562 19.6563 24.7562 14.3438V13.8125C25.5 13.3875 26.2437 12.6438 26.775 11.9ZM31.5562 8.18126V26.35C31.5562 29.325 29.1125 31.7688 26.1375 31.7688H7.86248C4.88748 31.875 2.44373 29.4313 2.44373 26.4563V8.18126C2.44373 5.20626 4.88748 2.76251 7.86248 2.76251H26.0312C29.1125 2.76251 31.5562 5.20626 31.5562 8.18126Z" fill="#5C5C66"/>
</svg>
