<svg width="30" height="22" viewBox="0 0 30 22" fill="none" xmlns="http://www.w3.org/2000/svg">
    <path d="M24.4015 -1.70421e-05H5.03602C2.38653 -1.70421e-05 0.21875 2.13845 0.21875 4.75213V17.2479C0.21875 19.8615 2.38653 22 5.03602 22H24.4015C27.051 22 29.2188 19.8615 29.2188 17.2479V4.75216C29.2188 2.13848 27.051 -1.70421e-05 24.4015 -1.70421e-05ZM11.3769 13.9477V7.68259C11.3769 6.89529 12.2409 6.40324 12.932 6.79689L18.4323 9.9295C19.1234 10.3231 19.1234 11.3073 18.4323 11.7009L12.932 14.8335C12.2409 15.2271 11.3769 14.735 11.3769 13.9477Z" fill="#5C5C66"/>
</svg>
