<svg width="29" height="22" viewBox="0 0 29 22" fill="none" xmlns="http://www.w3.org/2000/svg">
    <path d="M24.1827 -1.70421e-05H4.81727C2.16778 -1.70421e-05 0 2.13845 0 4.75213V17.2479C0 19.8615 2.16778 22 4.81727 22H24.1827C26.8322 22 29 19.8615 29 17.2479V4.75216C29 2.13848 26.8322 -1.70421e-05 24.1827 -1.70421e-05ZM11.1582 13.9477V7.68259C11.1582 6.89529 12.0221 6.40324 12.7133 6.79689L18.2135 9.9295C18.9047 10.3231 18.9047 11.3073 18.2135 11.7009L12.7133 14.8335C12.0221 15.2271 11.1582 14.735 11.1582 13.9477Z" fill="#F03131"/>
</svg>
